<svg xmlns="http://www.w3.org/2000/svg" xmlns:xlink="http://www.w3.org/1999/xlink" version="1.1" id="Layer_1" viewBox="28.04 44.8 146.11 113.02"><path fill="#3892DC" opacity="1.000000" stroke="none" d="M44.077984,134.445831 C44.303104,142.151733 44.574913,149.403885 44.867752,157.217178   C41.120129,157.217178 36.794655,157.516129 32.557819,157.034805   C31.288307,156.890579 29.523438,154.707642 29.245361,153.222748   C26.387293,137.960953 28.614202,123.281677 35.849480,109.624107   C41.771008,98.446426 48.061771,87.424530 54.846195,76.751427   C73.536026,47.349018 112.619919,36.354332 143.760971,51.747421   C153.295975,56.460587 162.340546,62.172504 171.546539,67.535477   C172.574005,68.134026 173.834763,69.413910 173.882538,70.429787   C174.121460,75.509674 173.991898,80.606903 173.991898,86.789398   C168.521790,83.682411 163.950089,81.105110 159.397247,78.494911   C153.472733,75.098328 147.612808,71.585983 141.638321,68.280266   C120.213638,56.425861 99.160240,57.863087 79.479317,73.333168   C80.893723,73.181068 82.335327,73.155327 83.718407,72.857666   C100.923599,69.154816 117.209785,71.808983 132.480331,80.308342   C145.431900,87.516991 158.218094,95.028694 170.939438,102.637100   C172.427750,103.527245 173.750000,105.817322 173.916489,107.575157   C174.337463,112.020287 174.056107,116.531937 174.056107,121.735008   C172.248642,120.928986 170.899063,120.464279 169.684814,119.764679   C156.119843,111.949005 142.262115,104.587418 129.086517,96.160347   C93.634216,73.485161 49.710999,94.901070 44.077984,134.445831  z"></path><path fill="#3892DB" opacity="1.000000" stroke="none" d=" M101.299278,117.714310   C91.951805,116.933250 84.454926,119.822205 79.109314,127.125694   C72.167236,136.610382 72.924286,146.360992 80.094704,157.497696   C73.646973,157.658554 68.387589,157.883270 63.133202,157.798477   C62.500675,157.788269 61.706997,156.177322 61.305519,155.180435   C55.532917,140.846954 59.641663,123.257423 71.219765,112.504616   C83.008209,101.556458 101.024048,98.217209 114.858795,105.692284   C134.044495,116.058548 152.768402,127.281464 171.627960,138.244385   C172.720612,138.879532 173.881104,140.438522 173.943558,141.623734   C174.202744,146.543991 174.052429,151.485825 174.052429,157.369690   C169.496994,154.814911 165.760193,152.767456 162.068970,150.640900   C145.042053,140.831345 128.066284,130.931931 110.971031,121.243179   C108.137360,119.637192 104.801712,118.916885 101.299278,117.714310  z"></path></svg>