<svg xmlns="http://www.w3.org/2000/svg" viewBox="1 1 248 248">
<circle fill="#FFFFFF" cx="125" cy="125" r="85.69"/>
<g stroke="#5a5758" stroke-miterlimit="10">
	<path fill="#FFFFFF" stroke-width="1.8413" d="M124.41,181.37c0,0-7.39-13.71-8.7-27.92c-0.92-10.37,4.2-18.07,4.83-25.77c0.94-11.41-9.51-17.36-1.56-51.87l17.59-0.56c0,0-3.08,16.69-4.62,25.54c-2.07,12.4,3.83,21.09,4.74,29.65c1.17,10.77-10.7,11.41-12.9,21.87C121.97,160.52,122.99,173.02,124.41,181.37z M203.65,160.94c0,0-1.39-9.57-4.59-19.86c-1.15-3.69-2.85-9.9-5.76-14.28c-5.07-7.59-17.95-15.55-22.31-23.67c-4.62-8.58-6.13-20.72-20.9-37.69l-15.31,10.25c0,0,9.58,8.47,14.27,14.74c5.65,7.6,7.3,17.97,12.89,23.68c11.64,11.99,17.42,9.71,24.71,16.45C193.36,136.95,199.87,153.46,203.65,160.94z M46.12,160.9c0,0,1.39-9.57,4.59-19.88c1.14-3.68,2.86-9.92,5.76-14.28c5.09-7.6,17.93-15.55,22.36-23.64c4.66-8.56,6.13-20.68,20.94-37.64l15.3,10.25c0,0-9.55,8.47-14.29,14.74c-5.67,7.58-7.29,17.96-12.94,23.68c-11.65,11.98-17.38,9.71-24.69,16.45C56.42,136.91,49.9,153.39,46.12,160.9z M27.01,75.76c10.72-0.87,26.31-1.05,37.02-3.04c8.28-1.55,12.38-5.01,21.75-7.49c7.57-2.04,16.1-3.57,16.1-3.57l-4.54-15.67C75.06,49.45,64.52,60.59,55.5,64.15c-8.56,3.35-22.25,0.39-31.92,4.23L27.01,75.76z M222.97,75.88c-10.77-0.88-26.37-1.09-37.04-3.06c-8.27-1.53-12.37-5-21.75-7.5c-7.56-2.06-16.08-3.6-16.08-3.6l4.54-15.67c22.22,3.52,32.76,14.64,41.8,18.21c8.53,3.39,22.22,0.4,31.89,4.27L222.97,75.88z"/>
	<path fill="none" stroke-width="1.2429" d="M124.11,178.92c-2.3-5.58-5.15-20.76-3.39-30.77c1.67-9.31,6.21-12.15,6.54-19.52c0.38-8.11-4.74-20.96-3.56-31.67c1.24-11.69,1.51-21.98,1.51-21.98 M202.73,157.11c-2.14-5.9-7.99-24.26-13.64-29.38c-5.53-4.99-13.42-10.08-19.44-15.43c-6.41-5.69-8.45-14.97-12.16-23c-4.66-9.94-14.8-16.77-14.8-16.77 M47.1,157.11c2.15-5.92,7.97-24.26,13.65-29.4c5.5-4.97,13.39-10.03,19.42-15.41c6.43-5.68,8.5-14.96,12.2-22.99c4.61-9.97,14.78-16.77,14.78-16.77 M29.95,71.3c9.38-1.02,16.32,1.18,23.45-0.6c7.88-1.93,16.7-5.9,28.37-10.71c10.66-4.42,18.75-4.48,18.75-4.48 M220,71.41c-9.37-1.03-16.34,1.17-23.42-0.62c-7.84-1.98-16.69-5.91-28.36-10.77c-10.68-4.46-18.74-4.5-18.74-4.5"/>
</g>
<path fill="#5a5758" d="M141.36,72.82l10.06-13.57l59.67,54.41L141.36,72.82z M158.46,154.04L140.5,67.03l-17.77,5.57L158.46,154.04z M127.13,72.66l-17.67-5.58l-18.03,86.98L127.13,72.66z M108.61,72.87L98.56,59.29l-59.7,54.35L108.61,72.87z M200.85,51.48l-49.02-7.76l0.94,15.73L200.85,51.48z M97.48,59.25l0.92-15.7l-51.94,7.18L97.48,59.25z M130.93,198.66c0,0,2.13-0.1,2.13-2.25c0-1.03-0.44-1.4-0.44-1.4l41.65,3.46l0.01-67.43L75.61,131l-0.01,67.44l41.63-3.46c0,0-0.49,0.36-0.49,1.39c0.01,2.15,2.13,2.29,2.13,2.29l6.05-0.02L130.93,198.66z"/>
<path fill="#FFFFFF" d="M174.78,52.12l-19.64,0.82l-0.12-3.44l20.48-1.01L174.78,52.12z M75.25,48.48l-0.21,3.61l20.69,0.87l0.12-3.46L75.25,48.48z M100.61,66.28l-46.13,35.85l47.76-33.64L100.61,66.28z M114.75,75.23l-16.5,57.13l19.15-56.33L114.75,75.23z M132.76,77.24l19.08,56.39l-16.46-57.2L132.76,77.24z M147.78,68.45l47.78,33.72l-46.14-35.95L147.78,68.45z"/>
<g fill="#FFFFFF" stroke="#5a5758" stroke-linecap="round" stroke-linejoin="round" stroke-miterlimit="10">
	<path stroke-width="1.9177" d="M171.28,127.79c0,0-0.5,0.61-2.78,1.07l-87-0.06c-2.27-0.51-2.74-1.08-2.74-1.08s0.08,64.28-0.03,64.2c0,0,1.34,1.57,9.59,1.58c9.03,0,12.61-4.06,21.55-4.05c8.98,0.01,15.07,3.7,15.07,3.7s6.07-3.68,15.11-3.63c8.88-0.02,12.48,4.06,21.56,4.06c8.35,0,9.64-1.59,9.64-1.59C171.16,192.1,171.28,127.79,171.28,127.79z"/>
	<path stroke-width="1.381" d="M168.48,124.47c0,0-0.4,0.59-2.73,1.07l-81.67-0.02c-2.32-0.51-2.69-1.09-2.69-1.09s0.08,64.28-0.03,64.2c0,0,1.3,1.62,9.06,1.61c7.86-0.03,11.2-4.06,20.32-4.07c8.44-0.01,14.18,3.67,14.18,3.67s5.73-3.68,14.22-3.7c9.13,0.04,12.48,4.06,20.29,4.09c7.81-0.02,9.05-1.61,9.05-1.61C168.42,188.77,168.48,124.47,168.48,124.47z"/>
	<path stroke-width="1.9009" d="M124.93,186.47c0,0,6-3.53,14.25-3.51c8.55,0.02,11,3.93,18.03,3.92c7.32,0,7.88-1.59,7.88-1.59c-0.08,0.11,0.03-64.2,0.03-64.2s-1.15,1.58-8.47,1.58c-7.96-0.01-9.9-4.08-18.48-4.05c-7.86-0.02-13.3,3.67-13.3,3.67s-5.35-3.69-13.31-3.7c-8.55-0.02-10.46,4.05-18.47,4.05c-7.32,0-8.47-1.59-8.47-1.59s0.08,64.33-0.03,64.2c0,0,0.61,1.57,7.89,1.58c7.08-0.02,9.46-3.91,18.05-3.9C118.92,182.97,124.93,186.47,124.93,186.47z"/>
	<path stroke-width="2.3384" d="M157.16,49.02c0.01,15.38-14.36,27.79-32.13,27.79S92.92,64.37,92.92,49c0-15.33,14.36-27.79,32.13-27.79C142.82,21.21,157.2,33.64,157.16,49.02z"/>
</g>
<path fill="#5a5758" d="M107.17,131.89c0.06,0.43,0.2,2.46,0.37,4.05l-0.96,0.09c-0.32-1.27-0.73-2.05-1.22-2.42c-0.56-0.51-1.6-0.61-3.6-0.62l-1.71,0c-1.27-0.02-1.32-0.01-1.33,0.97l-0.02,6.11l3.27-0.02c2.78,0,2.91-0.16,3.26-2.17l1.07,0l0.01,5.61l-1.07,0c-0.34-2.1-0.4-2.19-3.23-2.18l-3.32-0.02l0.01,4.25c0.02,2.93,0.25,3.19,3.3,3.35l0.01,0.78l-9.67-0.01l-0.01-0.78c2.42-0.14,2.73-0.38,2.7-3.36l0.03-9.57c-0.02-2.93-0.25-3.19-2.71-3.33l-0.01-0.78L107.17,131.89z M109.76,131.87l0.01,0.78c2.56,0.13,2.79,0.39,2.81,3.32l-0.03,9.57c0.02,2.93-0.24,3.16-2.81,3.32l0.01,0.78l9.28,0.02l-0.01-0.78c-2.51-0.14-2.74-0.4-2.76-3.32l0.03-9.57c-0.02-2.93,0.24-3.16,2.76-3.32l-0.01-0.78L109.76,131.87z M130.37,131.96l-6.64,14.26c-1.12,2.45-1.5,2.55-3.51,2.79l0.01,0.78l7.32,0l-0.01-0.78l-0.94-0.11c-1.44-0.14-1.68-0.5-1.1-1.94c0.47-1.14,1.09-2.69,1.51-3.53l6.11,0.02c0.64,1.42,1.41,3.12,1.77,3.95c0.39,1.07,0.34,1.37-0.91,1.49l-0.92,0.08l0.01,0.78l8.64,0.01l-0.01-0.78c-1.88-0.18-2.34-0.35-3.47-2.78c-1.22-2.76-2.66-6.12-4.16-9.47l-2.28-5.1L130.37,131.96z M129.93,136.12l0.1-0.01l2.55,6.04l-5.22,0L129.93,136.12z M141.09,136.36c0.41-1.28,0.79-2.01,1.18-2.41c0.56-0.52,1.44-0.84,4.23-0.84l1.12-0.01l0.01,12.59c-0.03,2.93-0.24,3.16-3.15,3.32l0.01,0.78l10.1,0l-0.01-0.78c-3.05-0.16-3.28-0.42-3.3-3.35l-0.01-12.59l1.71,0c2,0.01,3.04,0.11,3.61,0.67c0.45,0.43,0.84,1.15,1.19,2.57l0.97-0.04c-0.19-1.73-0.34-3.81-0.4-4.97l-0.54-0.02c-0.56,0.57-0.73,0.74-1.61,0.71l-13.52-0.01c-0.93-0.02-1.23-0.07-1.71-0.74l-0.59-0.02c-0.04,1.42-0.23,3.25-0.37,5.03L141.09,136.36z M94.37,156.19l0.01,0.78c2.66,0.16,2.89,0.42,2.91,3.35l-0.03,9.57c0.03,2.97-0.28,3.21-3.04,3.36l0.01,0.78l15.42-0.01c0.32-0.83,1.05-3.66,1.22-4.52l-1.05-0.15c-0.55,1.3-1.05,2.25-1.61,2.76c-0.64,0.68-2.24,0.75-3.75,0.77c-1.03,0-2.11-0.05-2.69-0.4c-0.59-0.36-0.79-1.11-0.77-2.72l-0.02-9.52c-0.02-2.93,0.28-3.21,2.9-3.34l-0.01-0.78L94.37,156.19z M110.18,156.12l0.01,0.78c2.66,0.16,2.88,0.38,2.9,3.3l0.01,6.34c0.02,3.27,0.73,5.22,2.46,6.39c1.67,1.13,3.82,1.47,5.87,1.47c2.35,0.01,4.69-0.71,6.11-2.03c1.82-1.62,2.38-3.9,2.4-6.54l0.02-1.96c0.01-3.08,0.18-4.66,0.31-5.46c0.16-0.95,1.03-1.36,2.68-1.4l-0.01-0.78l-8.01,0l0.01,0.78c2.11,0.09,3.04,0.45,3.18,1.41c0.12,0.86,0.28,2.35,0.28,5.48l-0.01,1.66c-0.01,4.79-2.01,7.26-5.96,7.28c-3.91-0.04-5.62-2.48-5.6-6.83l0.02-5.81c0.02-2.98,0.29-3.16,2.71-3.31l-0.01-0.78L110.18,156.12z M134.8,156.24l0.01,0.78c2.28,0.22,2.59,0.37,3.97,2.18l4.67,6.13c-1.95,2.47-4.92,6.01-5.6,6.69c-0.94,0.96-1.7,1.12-3.53,1.28l0.01,0.78l8.01,0l-0.01-0.78l-1.24-0.12c-1.27-0.02-1.02-0.64-0.58-1.33c0.49-0.7,2.13-3.28,3.84-5.37c2.75,3.57,3.77,4.94,4.14,5.52c0.55,0.8,0.5,1.15-0.76,1.23l-0.92,0.08l0.01,0.78l9.52-0.02l-0.01-0.78c-2.27-0.17-2.73-0.3-4.16-2.2l-5.61-7.27c1.69-2.24,3.26-3.92,4.23-4.99c1.58-1.64,1.92-1.64,4.08-1.89l-0.01-0.78l-7.62-0.01l0.01,0.78l1.09,0.09c1.19,0.13,1.18,0.42,0.66,1.23c-0.93,1.4-2.24,3.15-3.33,4.47c-1.59-1.97-3.35-4.36-3.59-4.72c-0.53-0.66-0.27-0.89,0.79-0.99l1.06-0.1l0.04-0.79L134.8,156.24z"/>
<path fill="#CC0000" d="M249,125c0,68.48-55.52,124-124,124S1,193.48,1,125S56.52,1,125,1S249,56.52,249,125z M125,39.31c-47.32,0-85.69,38.36-85.69,85.69s38.36,85.69,85.69,85.69s85.69-38.36,85.69-85.69S172.32,39.31,125,39.31z"/>
<circle fill="none" stroke="#FFFFFF" stroke-width="2.7416" stroke-miterlimit="10" cx="125" cy="125" r="119.65"/>
<g fill="none" stroke="#5a5758" stroke-linecap="round" stroke-miterlimit="10">
	<line stroke-width="1.3672" x1="124.94" y1="193.16" x2="124.93" y2="186.47"/>
	<circle stroke-width="2.728" cx="125" cy="125" r="85.69"/>
</g>
<path fill="#FFFFFF" d="M18.78,119.78c-3.39,1.26-4.25,3.43-4.17,6.44c0.17,5.39,4.27,7.85,8.5,7.69c5.39-0.17,8.93-3.5,8.81-8.17c-0.11-3.55-1.76-5.27-4.98-6.97l0.17-1.24c1.62,0.41,3.96,1.1,5.06,1.63c0.24,0.99,0.97,4.11,1.02,6.55c0.29,9.38-4.53,13.28-9.25,13.4c-5.74,0.17-10.39-5.13-10.66-13.39c-0.08-3.02,0.37-5.37,0.53-6.32c1.61-0.32,2.9-0.55,4.73-0.76L18.78,119.78z M19.99,104.08c-3.11-0.59-3.26-0.96-2.86-3.65l-0.91-0.21l-2.16,10.36l0.91,0.21c0.7-2.64,0.92-2.81,4.04-2.18l9.86,2.08c3.06,0.6,3.21,0.97,2.78,3.81l0.91,0.21l3.45-16.45c-0.75-0.48-3.52-1.8-4.61-2.23l-0.51,1.24c1.3,0.89,2.08,1.61,2.52,2.28c0.52,0.95,0.4,2.53,0.11,3.89c-0.24,1.06-0.46,1.97-0.77,2.5c-0.39,0.69-1.08,0.69-3.14,0.24L19.99,104.08z M42.42,83.71l4.15-8.69l-0.83-0.37c-0.99,1.65-1.37,2.1-4.36,1.98c-3.23-0.08-7.06-0.18-10.84-0.38l-5.9-0.3l-0.39,1.76l10.51,12.98c1.83,2.28,1.8,2.73,1.05,4.73l0.79,0.38l3.44-7.17l-0.83-0.37l-0.48,0.75c-0.82,1.43-1.08,1.32-2.22,0.21c-0.91-0.95-1.88-1.93-2.47-2.68l2.73-5.61c1.22-0.02,2.89,0.03,3.96,0.03c1.37,0,1.61,0.31,1.14,1.55l-0.27,0.87L42.42,83.71z M28.6,80.52l0.03-0.1l6.54,0.35l-2.23,4.66L28.6,80.52z M45.62,62.95l0.55-0.61c0.72-0.78,1.22-1.05,2.27-0.86c1.8,0.33,3.7,0.65,5.47,0.7c2.19-0.01,3.55-0.45,6.43-3.59l0.85-0.9l-0.63-0.64c-0.76,0.5-1.32,0.67-2.28,0.81c-0.86,0.12-2.32,0.13-4.29,0.02c-1.72-0.05-4.09-0.3-5.04-0.46c1.05-2.64,1.05-5.03-0.93-6.65c-1.28-1.09-2.92-1.3-4.39-0.65c-1.43,0.59-2.86,1.87-4.78,4.19l-6.1,7.35l0.72,0.58c1.79-1.86,2.12-1.96,4.55,0.09l7.74,6.48c2.43,2,2.43,2.34,0.83,4.52l0.72,0.58l6.56-7.85l-0.72-0.58c-1.83,1.92-2.16,2.01-4.59-0.04L45.62,62.95z M39.36,57.68c-0.93-0.75-0.91-0.9,0.14-2.17c1.26-1.49,3.63-2.66,5.84-0.82c1.15,0.91,1.87,2.23,1.66,3.87c-0.15,1-0.57,1.89-1.48,2.99l-0.67,0.78L39.36,57.68z M62.93,45.1l0.09-0.06c4.18,0.88,10.51,2.19,12.38,2.66l5.63-4.06l-0.54-0.75c-1.21,0.76-1.89,0.8-4.28,0.45c-3.64-0.52-7.35-1.26-11.02-2.02c0.55-2.32,1.23-4.81,2.03-7.46c0.83-2.8,1.25-3.25,2.96-4.66l-0.54-0.75l-7.32,5.22l0.54,0.75l1.17-0.7c0.81-0.5,0.94-0.28,0.8,1.16c-0.24,2.08-1.54,7.83-2.08,9.91l-2.79-3.9c-1.88-2.62-1.73-2.93,0.19-4.57l-0.54-0.75l-8.2,5.93l0.54,0.75c2.29-1.4,2.64-1.39,4.46,1.18l5.88,8.16c1.83,2.58,1.73,2.93-0.2,4.52l0.54,0.75l8.25-5.94l-0.54-0.75c-2.34,1.45-2.72,1.5-4.5-1.13L62.93,45.1z M81.03,22.69l0.28,0.94c2.6-0.61,2.95-0.51,3.87,2.53l1.91,6.32c1.04,3.27,2.37,5.04,4.56,5.71c1.99,0.6,4.38,0.26,6.63-0.39c2.34-0.72,4.52-2.2,5.59-4.01c1.39-2.29,1.12-4.89,0.3-7.61l-0.62-2.01c-0.9-2.95-1.18-4.57-1.31-5.48c-0.14-1.01,0.6-1.65,2.23-2.22l-0.28-0.94l-8.38,2.54l0.28,0.94c2.26-0.61,3.2-0.5,3.67,0.41c0.37,0.88,1.06,2.34,1.96,5.29l0.6,1.82c1.45,4.78,0.42,7.9-3.56,9.09c-3.7,1.1-6.16-0.75-7.51-5.15l-1.78-5.75c-0.91-3-0.7-3.27,1.66-4.19l-0.28-0.94L81.03,22.69z M130.93,22.09c-0.09-3.06,0.08-4.65,0.19-5.59c0.09-1.09,0.96-1.5,2.7-1.6l-0.03-0.92l-8.7,0.29l0.03,0.92c2.3,0.07,3.23,0.43,3.42,1.42c0.18,0.9,0.44,2.48,0.54,5.59l0.19,5.2l-0.05,0.01l-14-12.78l-6.13,0.18l0.03,0.92c1.48,0.09,2.38,0.25,3.06,0.94c0.63,0.64,0.67,1.32,0.74,3.22l0.18,5.78c0.14,3.06-0.03,4.64-0.14,5.59c-0.09,1.09-0.96,1.5-2.7,1.6l0.03,0.92l8.7-0.29l-0.03-0.92c-2.3-0.07-3.23-0.43-3.42-1.42c-0.18-0.9-0.44-2.48-0.54-5.59l-0.21-6.02l0.05-0.01l14.39,13.85l2.14-0.06L130.93,22.09z M146.54,20.93c0.6-3.06,0.87-3.2,3.49-2.93l0.17-0.9l-10.22-1.84l-0.17,0.9c2.58,0.66,2.81,0.92,2.23,4.03l-1.78,9.92c-0.6,3.06-0.87,3.2-3.49,2.93l-0.17,0.9l10.17,1.85l0.17-0.9c-2.58-0.66-2.81-0.92-2.23-4.03L146.54,20.93z M158.71,39.87c4.62-4.65,11.8-11.22,12.15-11.52c2.39-2.09,2.78-2.1,4.91-1.52l0.32-0.87l-7.75-3.01l-0.32,0.87l0.95,0.5c1.37,0.69,1.52,1.1,0.08,2.67c-1.02,1.07-5.9,6.34-7.91,8.33c-0.32-4.4-0.78-10.78-0.84-12.58c0.01-1.32,0.17-1.54,1.45-1.18l1.17,0.32l0.32-0.87l-9.49-3.65l-0.32,0.87c1.64,0.89,2.18,1.26,2.35,4.21c0.18,3,0.71,10.98,1.08,16.79L158.71,39.87z M172.21,41.11c-1.77,2.69-2.11,2.69-4.6,1.28l-0.48,0.75l14.64,9.37c0.66-0.48,2.91-2.6,3.66-3.49l-0.95-0.89c-1.25,0.86-2.29,1.44-3.05,1.55c-1.05,0.2-2.51-0.53-3.86-1.41c-1.19-0.81-1.99-1.28-2.35-1.82c-0.43-0.62-0.23-1.29,0.94-3.06l2.49-3.86l2.2,1.4c2.53,1.65,2.55,1.84,1.58,3.98l1.07,0.68l3.49-5.42l-1.07-0.68c-1.56,1.73-1.69,1.85-4.27,0.21l-2.2-1.4l3.25-5.04c0.52-0.85,0.62-0.82,1.74-0.1l1.17,0.71c1.82,1.11,2.66,1.92,2.86,2.63c0.24,0.65,0.13,1.59-0.32,2.93l1.11,0.63c0.88-1.73,1.88-3.63,2.12-4.06l-13.57-8.69l-0.48,0.75c2.01,1.48,2.11,1.8,0.43,4.48L172.21,41.11z M195.44,53.91l0.57,0.6c0.74,0.77,0.91,1.29,0.62,2.31c-0.49,1.73-1.06,3.61-1.25,5.35c-0.23,2.18,0.01,3.56,2.86,6.82l0.82,0.96l0.7-0.59c-0.4-0.77-0.58-1.33-0.57-2.31c-0.03-0.88,0.11-2.36,0.42-4.31c0.3-1.7,0.8-4.07,1.06-4.98c2.49,1.41,4.86,1.61,6.71-0.16c1.21-1.15,1.56-2.81,1.11-4.3c-0.46-1.55-1.6-3.05-3.66-5.25l-6.63-6.88l-0.69,0.63c1.64,1.92,1.69,2.3-0.59,4.48l-7.27,7.02c-2.28,2.22-2.63,2.13-4.59,0.35l-0.69,0.63l7.09,7.4l0.69-0.63c-1.7-2.01-1.75-2.39,0.53-4.57L195.44,53.91z M201.46,48.14c0.81-0.85,0.96-0.82,2.1,0.39c1.36,1.37,2.25,3.83,0.19,5.88c-1.08,0.98-2.42,1.56-4.03,1.2c-1-0.2-1.76-0.73-2.79-1.81l-0.74-0.73L201.46,48.14z M204.14,67.97c-1.29,1.25-2.79,2.73-3.29,3.34c0.11,0.47,0.26,1.18,0.55,2.17c0.24,0.99,0.75,2.19,1.44,3.31c2.65,4.31,6.62,5.76,9.58,3.93c2.7-1.65,2.66-4.72,2.01-7.6l-0.26-1.14c-0.61-2.6-0.36-4.29,0.9-5.06c1.39-0.88,3.2-0.5,4.29,1.35c1.58,2.56,0.35,4.59-0.76,6.06l0.82,0.96c1.3-1.21,2.29-2.13,3.12-2.78c-0.16-0.42-0.33-0.93-0.5-1.49c-0.28-0.99-0.82-2.03-1.34-2.94c-2.58-4.13-6.35-5.26-9-3.62c-2.33,1.5-2.49,4.5-1.87,7.58l0.15,0.71c0.59,2.8,0.47,4.38-1.24,5.45c-1.39,0.88-3.34,0.52-4.55-1.46c-1.79-3.02-0.2-6.32,0.87-7.69L204.14,67.97z M225.01,87.99c2.91-1.19,3.22-1.04,4.34,1.34l0.88-0.32l-3.89-9.61l-0.88,0.32c0.84,2.52,0.74,2.87-2.22,4.02l-9.38,3.76c-2.91,1.19-3.22,1.04-4.34-1.34l-0.88,0.32l3.89,9.61l0.88-0.32c-0.84-2.52-0.74-2.87,2.22-4.02L225.01,87.99z M233.48,106.62l0.3,1.42c0.38,2,0.45,3.21,0.05,3.85c-0.35,0.63-1.06,1.17-2.58,1.83l0.32,1.22c1.87-0.56,4.08-1.16,5.32-1.43l-0.14-0.66c-0.7-0.49-0.95-0.84-1.12-1.75l-2.73-13.87c-0.18-0.95-0.18-1.29,0.35-2.05l-0.14-0.66c-1.48,0.26-3.5,0.44-5.57,0.68l0.22,1.24c1.53,0.13,2.4,0.4,2.89,0.77c0.59,0.4,1.1,1.26,1.64,4.07l0.12,0.86l-13.02,2.56c-3.09,0.63-3.36,0.42-4.12-2.55l-0.9,0.18l2.19,11.12l0.9-0.18c-0.44-3.16-0.28-3.43,2.8-4.05L233.48,106.62z M224.09,130.2c1.23,0.07,1.34,0.15,2.36,0.79c2.56,1.55,4.01,2.81,5.7,4.13c1.97,1.48,2.21,1.84,2.37,4.01l0.93,0.02l0.21-8.23l-0.93-0.02l-0.15,1.34c-0.16,1.29-0.38,1.47-1.49,0.84c-1.91-1.1-4.73-2.75-6.4-3.89c2.15-1.38,4.45-2.72,6.71-4.02c0.95-0.52,1.16-0.41,1.24,0.46l0.15,1.44l0.93,0.02l0.26-9.65l-0.93-0.02c-0.29,1.8-0.29,2.09-2.54,3.48c-3.36,2.18-5.28,3.43-7.01,4.35c-0.68,0.34-0.92,0.42-1.7,0.43l-2.65-0.07c-3.19-0.09-3.42-0.35-3.49-3.32l-0.93-0.02l-0.29,11.17l0.93,0.02c0.25-3.11,0.45-3.38,3.64-3.29L224.09,130.2z M49.31,180.57l-12.66,1.29l6.12-11.35l-3.36-5.14l-0.67,0.44c1.18,2.18,1.09,2.53-1.86,4.17l-4.48,2.48c-2.04,1.12-3.42,1.75-4.16,2.05c-0.87,0.41-1.41,0.05-2.25-1.1l-0.67,0.44l3.93,6.09l0.67-0.44c-0.98-1.77-1.11-2.38-0.37-3.02c0.57-0.47,1.67-1.31,3.57-2.4l5.36-3.19l0.05,0.04l-6.9,12.1l0.56,0.85l14.52-1.6l0.06,0.09l-7.86,5.2c-2.32,1.55-2.42,1.51-3.8-0.3l-0.67,0.44l4.68,7.25l0.67-0.44c-1.07-2.09-1.09-2.19,1.23-3.78l7.11-5c2.27-1.59,2.42-1.56,3.86,0.34l0.67-0.44L49.31,180.57z M54.5,187.31l-0.56,0.52c1.36,1.66,1.35,1.96-0.64,3.8l-6.4,5.88c-1.99,1.84-2.34,1.79-4.03,0.13l-0.56,0.52l5.18,5.62c4.79,5.24,10.68,7.58,15.22,3.38c1.64-1.5,2.22-3.63,2.07-5.46c-0.22-2.61-1.87-5.3-4.22-7.85L54.5,187.31z M56.74,193.54c0.47-0.46,0.91-0.81,1.12-0.74c0.16,0.12,0.71,0.54,1.29,1.19c2.93,3.15,3.92,6.72-0.05,10.41c-3.11,2.88-7.03,2.79-9.97-0.41c-1.45-1.6-1.23-2.17,0.45-3.77L56.74,193.54z M82.28,214.12c0.63-1.45,1.07-2.49,1.51-3.82c-0.66-0.54-2.18-1.94-4.45-3.18c-6.25-3.47-12.19-2.34-14.61,2c-1.99,3.55-1.21,8.81,5.84,12.75c1.85,1.01,4.51,1.91,5.33,2.13c0.84-0.61,2.4-2.04,3.43-3.07l-0.87-0.66c-2.65,1.64-4.69,2.07-7.33,0.64c-3.5-1.95-4.4-5.97-2.15-10.1c1.75-3.17,5.33-5.14,9.41-2.88c2.23,1.25,3.52,2.83,2.92,5.89L82.28,214.12z M101.02,221.02c0.32-1.56,0.51-2.66,0.7-4.05c-0.7-0.44-2.51-1.5-4.96-2.28c-6.79-2.12-12.43,0.13-13.91,4.88c-1.21,3.93,0.57,8.95,8.28,11.38c1.99,0.65,4.72,0.95,5.61,1.02c0.73-0.74,2-2.48,2.76-3.66l-0.95-0.5c-2.34,2.13-4.22,2.98-7.13,2.07c-3.88-1.21-5.59-5.03-4.16-9.47c1.12-3.48,4.21-6.16,8.66-4.73c2.45,0.78,4.01,2.12,4.05,5.24L101.02,221.02z M121.48,224.2c0.02-1.57,0.01-2.69-0.04-4.1c-0.82-0.28-2.73-1.03-5.32-1.35c-7.1-0.86-12.22,2.35-12.85,7.27c-0.56,4.03,2.14,8.68,10.15,9.71c2.08,0.24,4.83,0.01,5.71-0.02c0.56-0.86,1.46-2.79,2.06-4.1l-1.07-0.29c-1.95,2.47-3.63,3.68-6.62,3.27c-4.03-0.56-6.32-4-5.75-8.62c0.47-3.63,3.05-6.77,7.67-6.2c2.48,0.29,4.29,1.35,4.86,4.4L121.48,224.2z M129.92,223.16c-0.13-2.67,0.08-2.89,2.44-3.17l-0.07-0.82l-9.05,0.54l0.11,0.81c2.24-0.02,2.56,0.18,2.7,2.89l0.53,8.66c0.14,2.71-0.13,2.9-2.58,3.19l0.07,0.82l14.43-0.85c0.24-0.72,0.66-3.31,0.81-4.31l-1.09-0.09c-0.41,1.23-0.88,2.08-1.3,2.57c-0.69,0.63-2.07,0.88-3.24,0.94c-0.92,0.08-1.74,0.1-2.26-0.07c-0.66-0.2-0.78-0.72-0.9-2.56L129.92,223.16z M152.67,232.23l9.11-2.2l-0.2-0.75c-1.95,0.37-2.34,0.38-4.04-0.95l-6.75-5.3c0.98-2.09,2.12-4.01,2.82-5.28c0.98-1.7,1.3-1.84,3.26-2.51l-0.2-0.75l-7.03,1.72l0.2,0.75l1.01-0.14c1.09-0.2,1.07,0,0.8,0.82c-0.56,1.54-1.29,3.31-1.9,4.56c-1.69-1.28-3.74-2.99-4.03-3.29c-0.46-0.47-0.43-0.62,0.5-0.95l0.93-0.33l-0.2-0.75l-8.63,2.14l0.2,0.75c2.01-0.28,2.37-0.19,3.9,1.02l5.66,4.53c-1.17,2.46-3.11,6.34-3.59,7.09c-0.6,0.96-1.34,1.26-2.88,1.77l0.2,0.75l7.41-1.82l-0.2-0.75l-1.09,0.2c-1.2,0.12-1.01-0.59-0.75-1.16c0.32-0.83,1.1-3.28,2-5.26c2.98,2.46,3.93,3.31,4.48,3.72c0.72,0.63,0.72,0.97-0.35,1.37l-0.83,0.31L152.67,232.23z M173.44,224.68l8.47-4.02l-0.35-0.73c-1.85,0.75-2.28,0.81-4.17-0.15l-7.66-3.81c0.53-2.17,1.2-4.32,1.69-5.7c0.62-1.84,0.88-2.08,2.64-3.1l-0.35-0.73l-6.54,3.11l0.35,0.73l0.98-0.33c1.07-0.39,1.1-0.15,0.98,0.69c-0.22,1.59-0.59,3.45-0.94,4.82c-1.93-0.9-4.27-2.23-4.59-2.43c-0.59-0.36-0.5-0.47,0.3-1.02l0.8-0.55l-0.35-0.73l-8.01,3.81l0.35,0.73c1.9-0.71,2.25-0.66,4.03,0.22l6.47,3.29c-0.66,2.63-1.82,6.85-2.1,7.67c-0.39,1.08-1.01,1.51-2.41,2.34l0.35,0.73l6.86-3.3l-0.35-0.73l-1.07,0.39c-1.12,0.4-1.07-0.34-0.97-0.99c0.17-0.85,0.44-3.48,0.93-5.55c3.43,1.81,4.58,2.38,5.17,2.74c0.8,0.47,0.89,0.75-0.1,1.38l-0.72,0.44L173.44,224.68z M192.49,212.98l7.46-5.63l-0.48-0.62c-1.71,1.07-2.02,1.26-4.1,0.67l-8.31-2.2c0.12-2.26,0.35-4.49,0.54-5.93c0.26-1.94,0.46-2.26,1.99-3.6l-0.48-0.62l-5.73,4.37l0.48,0.62l0.86-0.51c0.99-0.63,1.06-0.44,1.09,0.43c0.08,1.65,0.11,3.55,0.06,4.92c-2.02-0.5-4.58-1.31-4.99-1.45c-0.67-0.25-0.69-0.39,0.04-1.08l0.73-0.69l-0.48-0.62l-7.11,5.34l0.48,0.62c1.71-1.07,2.09-1.12,3.97-0.6l7.01,1.95c-0.06,2.74-0.37,7.13-0.49,7.98c-0.24,1.11-0.74,1.71-1.96,2.76l0.48,0.62l6.04-4.61l-0.48-0.62l-0.94,0.57c-1.03,0.63-1.14-0.13-1.18-0.76c-0.07-0.87-0.3-3.52-0.25-5.63c3.72,1.09,4.99,1.45,5.6,1.66c0.92,0.26,1.01,0.59,0.19,1.34l-0.65,0.58L192.49,212.98z M208.29,198.17c-2.38-5.13-5.52-12.9-5.67-13.26c-1-2.59-0.85-2.91,0.26-4.43l-0.61-0.55l-4.72,5.35l0.57,0.56l0.69-0.63c0.95-0.91,1.34-0.92,2.15,0.72c0.56,1.19,3.38,6.7,4.32,8.91c-3.66-1.05-8.96-2.6-10.39-3.08c-1.07-0.34-1.2-0.56-0.55-1.49l0.57-0.81l-0.61-0.55l-5.73,6.51l0.61,0.55c1.21-1.1,1.71-1.41,4.1-0.67c2.49,0.72,9.07,2.73,13.85,4.11L208.29,198.17z M208.64,176.3c-2.31-1.48-2.29-1.73-1.25-3.73l-0.7-0.44l-4.81,7.51l0.7,0.44c1.35-1.85,1.63-1.94,3.93-0.5l7.29,4.64c2.31,1.48,2.29,1.73,1.25,3.73l0.7,0.44l4.81-7.51l-0.7-0.44c-1.31,1.79-1.59,1.88-3.89,0.45L208.64,176.3z M213.69,166.75c-2.46-1.22-2.51-1.5-1.62-3.58l-0.73-0.34l-3.91,7.97l0.73,0.34c1.14-1.97,1.37-2.1,3.83-0.88l7.76,3.84c2.46,1.22,2.51,1.5,1.62,3.58l0.73,0.34l3.91-7.97l-0.73-0.34c-1.14,1.97-1.37,2.1-3.83,0.88L213.69,166.75z M29.53,160.64c0.09-1.09,0.2-2.03,0.36-2.69c0.15-0.66,0.32-1.22,0.55-1.64c0.18-0.46,0.56-0.86,1.02-1.41c0.46-0.55,1.15-1.19,2.03-1.9l-0.09-0.33c-1.09-0.09-2.03-0.2-2.69-0.36c-0.66-0.15-1.22-0.37-1.64-0.55c-0.47-0.23-0.87-0.61-1.42-1.07c-0.5-0.42-1.13-1.11-1.84-1.99l-0.33,0.09c-0.09,1.09-0.2,2.03-0.36,2.69c-0.15,0.66-0.37,1.22-0.55,1.64c-0.18,0.46-0.56,0.91-1.02,1.41c-0.46,0.55-1.15,1.19-2.03,1.9l0.09,0.33c1.09,0.09,2.03,0.2,2.69,0.36c0.66,0.15,1.22,0.37,1.64,0.55c0.47,0.23,0.87,0.61,1.42,1.07c0.56,0.51,1.13,1.11,1.84,1.99L29.53,160.64z M225.34,146.72c-0.67,0.83-1.3,1.5-1.77,2.01c-0.51,0.51-0.91,0.81-1.36,1.07c-0.4,0.25-0.97,0.43-1.63,0.57c-0.7,0.2-1.62,0.28-2.72,0.43l-0.1,0.36c0.89,0.75,1.56,1.39,2.07,1.86c0.51,0.51,0.82,0.96,1.07,1.36c0.25,0.4,0.42,0.92,0.57,1.63c0.15,0.71,0.28,1.62,0.38,2.73l0.36,0.1c0.67-0.83,1.3-1.5,1.77-2.01c0.51-0.51,0.96-0.82,1.36-1.07c0.4-0.25,0.97-0.43,1.63-0.57c0.71-0.15,1.62-0.28,2.72-0.43l0.1-0.36c-0.88-0.71-1.56-1.34-2.06-1.81c-0.51-0.51-0.81-0.91-1.07-1.36c-0.25-0.4-0.43-0.97-0.57-1.63c-0.2-0.7-0.27-1.57-0.42-2.67L225.34,146.72z"/>
</svg>