<svg fill="#ffffff" width="64px" height="64px" viewBox="0 0 24 24" id="ethereum" data-name="Flat Color" xmlns="http://www.w3.org/2000/svg" class="icon flat-color"><g id="SVGRepo_bgCarrier" stroke-width="0"></g><g id="SVGRepo_tracerCarrier" stroke-linecap="round" stroke-linejoin="round"></g><g id="SVGRepo_iconCarrier"><path id="secondary" d="M18.76,11.35a1,1,0,0,0-1.17-.26L12,13.6,6.41,11.09a1,1,0,0,0-1.17.26,1,1,0,0,0-.07,1.2l6,9a1,1,0,0,0,1.66,0l6-9A1,1,0,0,0,18.76,11.35Z" style="fill: #2ca9bc;"></path><path id="primary" d="M18.83,11.45l-6-9a1,1,0,0,0-1.66,0l-6,9a1,1,0,0,0-.13.83,1,1,0,0,0,.55.63l6,2.7a1,1,0,0,0,.82,0l6-2.7a1,1,0,0,0,.55-.63A1,1,0,0,0,18.83,11.45Z" style="fill: #FFFFFF;"></path></g></svg>