<svg xmlns="http://www.w3.org/2000/svg" xmlns:v="https://svgstorm.com"
viewBox = "0 0 225 225"
width="225"
height="225">
<g fill="#3D72D7" fill-opacity="1.00" stroke="None">
<path d="
M 137.00 67.00 
C 131.53 67.10 126.61 65.29 121.00 66.00
C 110.90 97.40 99.21 128.36 90.00 160.00
C 99.50 162.15 107.64 159.77 109.07 151.07 C 110.51 142.38 114.17 137.85 116.07 130.07 C 117.97 122.30 121.00 116.45 123.07 109.07 C 125.15 101.69 127.99 95.31 130.07 88.07 C 132.16 80.84 135.20 74.27 137.00 67.00 Z"/>
</g>
<g fill="#FFFFFF" fill-opacity="1.00" stroke="None">
<path d="
M 51.00 115.00 
C 57.73 113.86 63.66 111.76 69.93 108.93 C 76.19 106.09 83.96 107.64 83.00 98.00 C 82.04 88.36 82.41 86.78 71.69 91.69 C 60.98 96.61 48.15 101.96 37.23 106.23 C 26.31 110.50 33.70 115.81 31.00 124.00
C 48.71 129.44 65.16 139.00 83.00 144.00
C 86.10 133.08 81.34 125.81 72.07 123.93 C 62.80 122.04 57.46 119.28 51.00 115.00 Z"/>
</g>
<g fill="#FFFFFF" fill-opacity="1.00" stroke="None">
<path d="
M 195.00 124.00 
C 193.93 112.08 198.30 108.82 184.68 104.32 C 171.06 99.83 156.92 91.83 143.00 88.00
C 140.69 97.77 143.57 106.56 152.98 108.02 C 162.39 109.49 166.79 113.17 175.00 116.00
C 166.76 118.54 162.61 122.71 153.22 124.22 C 143.84 125.74 140.46 133.76 143.00 144.00
C 160.91 139.25 177.28 129.47 195.00 124.00 Z"/>
</g>
</svg>